<svg width="22" height="22" viewBox="0 0 22 22" fill="none" xmlns="http://www.w3.org/2000/svg">
<circle cx="11" cy="11" r="11" fill="white"/>
<path d="M13.9645 16.6042H12.3995L15.1098 12.5405H11.5792V11.4103H16.7655V12.3704L13.9645 16.6042Z" fill="black"/>
<path d="M11.1942 14.1433C11.1942 14.5566 11.1148 14.9321 10.956 15.2698C10.7998 15.6049 10.5843 15.8922 10.3097 16.1316C10.035 16.3685 9.71114 16.5525 9.33817 16.6835C8.9652 16.8121 8.56451 16.8763 8.1361 16.8763C7.84881 16.8763 7.57412 16.8473 7.31203 16.7894C7.04995 16.7314 6.80424 16.647 6.57491 16.5361C6.34811 16.4252 6.14146 16.2904 5.95498 16.1316C5.77101 15.9704 5.61351 15.7889 5.48247 15.5873C5.35142 15.3857 5.24936 15.1639 5.17628 14.922C5.10572 14.6801 5.07043 14.4205 5.07043 14.1433C5.07043 13.8686 5.10572 13.6103 5.17628 13.3684C5.24936 13.1239 5.35142 12.9009 5.48247 12.6993C5.61351 12.4977 5.77101 12.3175 5.95498 12.1588C6.14146 11.9975 6.34811 11.8614 6.57491 11.7505C6.80424 11.6396 7.04995 11.5552 7.31203 11.4972C7.57412 11.4393 7.84881 11.4103 8.1361 11.4103C8.56451 11.4103 8.9652 11.4758 9.33817 11.6069C9.71114 11.7354 10.035 11.9194 10.3097 12.1588C10.5843 12.3956 10.7998 12.6829 10.956 13.0206C11.1148 13.3558 11.1942 13.73 11.1942 14.1433ZM9.79178 14.1433C9.79178 13.8812 9.74642 13.6494 9.65569 13.4478C9.56497 13.2462 9.44275 13.0761 9.28903 12.9375C9.13782 12.7989 8.96268 12.6943 8.76359 12.6237C8.56451 12.5531 8.35534 12.5179 8.1361 12.5179C7.91685 12.5179 7.70642 12.5531 7.50482 12.6237C7.30321 12.6943 7.12555 12.7989 6.97182 12.9375C6.82062 13.0761 6.6984 13.2462 6.60515 13.4478C6.51443 13.6494 6.46907 13.8812 6.46907 14.1433C6.46907 14.4054 6.51443 14.6372 6.60515 14.8388C6.6984 15.0405 6.82062 15.2106 6.97182 15.3492C7.12555 15.4852 7.30321 15.5898 7.50482 15.6629C7.70642 15.7335 7.91685 15.7688 8.1361 15.7688C8.35534 15.7688 8.56451 15.7335 8.76359 15.6629C8.96268 15.5898 9.13782 15.4852 9.28903 15.3492C9.44275 15.2106 9.56497 15.0405 9.65569 14.8388C9.74642 14.6372 9.79178 14.4054 9.79178 14.1433Z" fill="black"/>
<path d="M17.0001 7.692C17.0001 8.10529 16.9207 8.48078 16.762 8.81847C16.6057 9.15364 16.3902 9.44092 16.1156 9.68033C15.8409 9.91722 15.517 10.1012 15.1441 10.2322C14.7711 10.3607 14.3704 10.425 13.942 10.425C13.6547 10.425 13.38 10.396 13.1179 10.3381C12.8559 10.2801 12.6101 10.1957 12.3808 10.0848C12.154 9.97392 11.9474 9.83909 11.7609 9.68033C11.5769 9.51905 11.4194 9.3376 11.2884 9.136C11.1573 8.93439 11.0553 8.71262 10.9822 8.4707C10.9116 8.22877 10.8763 7.9692 10.8763 7.692C10.8763 7.41731 10.9116 7.159 10.9822 6.91708C11.0553 6.67263 11.1573 6.4496 11.2884 6.248C11.4194 6.04639 11.5769 5.86621 11.7609 5.70744C11.9474 5.54616 12.154 5.41008 12.3808 5.29919C12.6101 5.18831 12.8559 5.10389 13.1179 5.04593C13.38 4.98797 13.6547 4.95898 13.942 4.95898C14.3704 4.95898 14.7711 5.02451 15.1441 5.15555C15.517 5.28407 15.8409 5.46804 16.1156 5.70744C16.3902 5.94433 16.6057 6.23162 16.762 6.56931C16.9207 6.90448 17.0001 7.27871 17.0001 7.692ZM15.5977 7.692C15.5977 7.42991 15.5523 7.19806 15.4616 6.99646C15.3709 6.79485 15.2487 6.62475 15.0949 6.48614C14.9437 6.34754 14.7686 6.24296 14.5695 6.1724C14.3704 6.10183 14.1612 6.06655 13.942 6.06655C13.7228 6.06655 13.5123 6.10183 13.3107 6.1724C13.1091 6.24296 12.9315 6.34754 12.7777 6.48614C12.6265 6.62475 12.5043 6.79485 12.4111 6.99646C12.3203 7.19806 12.275 7.42991 12.275 7.692C12.275 7.95408 12.3203 8.18593 12.4111 8.38754C12.5043 8.58914 12.6265 8.75925 12.7777 8.89785C12.9315 9.03393 13.1091 9.13852 13.3107 9.2116C13.5123 9.28216 13.7228 9.31744 13.942 9.31744C14.1612 9.31744 14.3704 9.28216 14.5695 9.2116C14.7686 9.13852 14.9437 9.03393 15.0949 8.89785C15.2487 8.75925 15.3709 8.58914 15.4616 8.38754C15.5523 8.18593 15.5977 7.95408 15.5977 7.692Z" fill="black"/>
<path d="M7.36876 12.3225H5.8038L8.51413 8.25888H4.98352V7.12863H10.1698V8.08877L7.36876 12.3225Z" fill="black"/>
<rect x="5.07043" y="4.95898" width="4.99032" height="1.08485" fill="black"/>
</svg>
