<?xml version="1.0" encoding="UTF-8"?>
<svg id="Layer_1" data-name="Layer 1" xmlns="http://www.w3.org/2000/svg" viewBox="0 0 1080 1080">
  <defs>
    <style>
      .cls-1 {
        fill: #000;
      }

      .cls-1, .cls-2 {
        stroke-width: 0px;
      }

      .cls-2 {
        fill: #fff;
      }
    </style>
  </defs>
  <path class="cls-2" d="M62.97,538.87c0-146.99.01-293.98-.01-440.97,0-33.37,15.74-57.46,44.88-72.02,9.72-4.86,21.86-6.78,32.9-6.79,238.62-.37,477.23-.28,715.85-.28,26.39,0,52.79.18,79.18-.04,35.8-.31,61.1,16.2,75.2,48.53,4.3,9.86,5.82,21.64,5.83,32.55.3,292.26.22,584.52.24,876.78,0,29.77-11.22,53.69-36.48,70.15-11.86,7.73-25.03,11.85-39.37,11.85-267.37-.01-534.74.07-802.11-.12-32.36-.02-55.27-16.85-69.08-45.12-4.69-9.61-6.72-21.44-6.76-32.27-.43-147.42-.29-294.83-.29-442.25ZM546.94,291.66"/>
  <path class="cls-1" d="M755.43,82.44c114.6-1.96,213,93.9,210.25,214.44-2.57,112.9-91.84,205.06-209.06,206.05-117.73.99-213.52-93.77-211.82-214.72,1.58-112.32,94.83-207.67,210.63-205.76ZM884.27,292.02c-.25-70.34-58.13-130.36-132.3-128.77-67.98,1.45-127.67,58.66-125.72,132.66,1.78,67.59,57.03,125.24,128.97,125.4,71.23.15,129.29-58.3,129.05-129.28Z"/>
  <path class="cls-1" d="M337.35,997.92c-117.56.66-208.28-93.75-210.85-203.96-2.9-124.39,94.85-213.81,204.05-216.77,122.44-3.32,217.57,96.03,216.8,211.18-.77,116.05-93.67,209.44-210,209.56ZM208.12,787.44c-.46,71.12,56.58,129.2,127.59,129.33,73.69.13,130.12-55.64,130.25-129.46.12-71.58-56.85-127.02-127.18-128.55-71.83-1.56-131.71,58.92-130.67,128.68Z"/>
  <path class="cls-1" d="M534.85,84.98v58.41l-169.52,395.31h-93.31l163.48-379.87h-208.5v79.89h-81.23V84.98h389.08Z"/>
  <path class="cls-1" d="M964.15,544.2v58.41l-169.52,395.31h-93.31l163.48-379.87h-208.5v79.89h-81.23v-153.73h389.08Z"/>
</svg>